<?xml version="1.0" encoding="UTF-8"?>
<svg width="1000px" height="1000px" viewBox="0 0 1000 1000" version="1.1" xmlns="http://www.w3.org/2000/svg" xmlns:xlink="http://www.w3.org/1999/xlink">
    <!-- Generator: Sketch 54.1 (76490) - https://sketchapp.com -->
    <title>编组 20</title>
    <desc>Created with Sketch.</desc>
    <defs>
        <linearGradient x1="9.29786359e-16%" y1="49.9444444%" x2="100%" y2="49.9444444%" id="linearGradient-1">
            <stop stop-color="#FFFFFF" offset="0%"></stop>
            <stop stop-color="#00ADDA" offset="100%"></stop>
        </linearGradient>
    </defs>
    <g id="上传" stroke="none" stroke-width="1" fill="none" fill-rule="evenodd">
        <g id="画板" transform="translate(-10469.000000, -5104.000000)">
            <g id="编组-20" transform="translate(10469.000000, 5104.000000)">
                <rect id="矩形复制-40" x="0" y="0" width="1000" height="1000"></rect>
                <g id="编组-234" transform="translate(56.000000, 51.000000)" fill-rule="nonzero">
                    <path d="M492,637.453978 C492.257718,638.380655 497.626846,661 497.626846,661 L524,659.946958 L518.716779,634 L492,637.453978 Z" id="路径" fill="#FFCFC3"></path>
                    <path d="M568.993881,691.74672 C569.041414,692.424648 568.810436,693.092179 568.356403,693.589051 C567.902369,694.085923 567.266283,694.367263 566.600857,694.365527 C553.524688,694.845642 492.331639,696.547866 488.314777,691.135665 C487.316899,689.363906 486.869815,687.324208 487.0328,685.286995 C487.858742,675.320979 489.838248,665.490075 492.929895,656 C503.401822,656.718445 513.909145,656.718445 524.381071,656 C524.381071,656 529.209852,658.793394 535.577006,662.677959 C541.94416,666.562523 551.003466,671.931078 557.413353,676.033876 C561.34475,678.56539 564.421495,680.616789 565.959868,681.795252 C567.757176,683.908609 568.783779,686.591706 568.865683,689.389793 C568.908416,690.262729 568.951148,691.048371 568.993881,691.74672 Z" id="路径" fill="#FFFFFF"></path>
                    <path d="M558,675.014864 C556.084014,678.077185 553.645485,681.352167 551.642408,680.969377 C548.332977,680.288861 530.784283,671.484688 531.002009,669.61327 C532.261623,666.896601 533.855513,664.339997 535.74843,662 C542.672108,665.955498 551.468228,671.016834 558,675.014864 Z" id="路径" fill="#65B2F1"></path>
                    <path d="M568.993881,691.650593 C569.041414,692.348553 568.810436,693.035807 568.356403,693.547361 C567.902369,694.058914 567.266283,694.348567 566.600857,694.34678 C553.524688,694.841081 492.331639,696.593602 488.314777,691.021483 C487.316899,689.197374 486.869815,687.097408 487.0328,685 C503.185714,686.348093 546.858406,689.718326 568.780218,689.224025 C568.908416,690.122754 568.951148,690.93161 568.993881,691.650593 Z" id="路径" fill="#65B2F1"></path>
                    <path d="M374.141403,339.07829 C374.141403,339.07829 479.656279,390.461879 498.630069,415.465116 C515.028231,436.982532 524,637.223604 524,637.223604 C524,637.223604 495.410534,641.527087 485.365587,639.41838 C485.365587,639.41838 445.486286,450.065121 441.279428,438.617856 C437.07257,427.17059 318.76541,403.11412 308.205337,381.940982 C297.645264,360.767845 359.54618,332.063612 374.141403,339.07829 Z" id="路径" fill="#FAAA4B"></path>
                    <polygon id="路径" fill="#FFCFC3" points="423 638.459375 428.634409 662 455 660.9875 449.709677 635"></polygon>
                    <path d="M232,330.516258 C232,330.516258 234.840506,410.91795 270.734177,437 L351,434.197796 C351,434.197796 310.027848,367.893345 323.541772,325.601624 C337.055696,283.309903 232,330.516258 232,330.516258 Z" id="路径" fill="#0D69B5"></path>
                    <rect id="矩形" fill="#167EC4" x="296" y="449" width="27" height="59"></rect>
                    <path d="M298.212121,621 L319,621 L319,661.150134 C319,665.485495 315.524102,669 311.236364,669 L305.763636,669 C301.475898,669 298,665.485495 298,661.150134 L298,621 L298.212121,621 Z" id="路径" fill="#024F8E"></path>
                    <path d="M432.949242,681 C434.664214,675.875694 434.26799,670.280864 431.847888,665.448459 C429.427786,660.616053 425.182432,656.942687 420.047387,655.23787 L324.702685,623.936883 L324.702685,581 L292.964124,581 L292.964124,624.194504 L198.952613,655.066123 C193.817568,656.77094 189.572214,660.444306 187.152112,665.276711 C184.73201,670.109116 184.335786,675.703946 186.050758,680.828252 L309.607515,640.252898 L309.607515,640.252898 L432.949242,681 Z" id="路径" fill="#0052A4"></path>
                    <path d="M407,678.5 C407,669.387302 414.387302,662 423.5,662 C432.612698,662 440,669.387302 440,678.5 C440,687.612698 432.612698,695 423.5,695 C414.387302,695 407,687.612698 407,678.5 L407,678.5 Z" id="路径" fill="#0D69B5"></path>
                    <path d="M209.999943,678.543319 C210.017378,671.865896 206.008414,665.836275 199.844278,663.268846 C193.680143,660.701417 186.576249,662.102413 181.848415,666.817905 C177.120581,671.533396 175.701018,678.633605 178.252322,684.804433 C180.803626,690.975262 186.822743,694.999977 193.500187,695 C202.595953,695.000031 209.976195,687.639057 209.999943,678.543319 L209.999943,678.543319 Z" id="路径" fill="#0D69B5"></path>
                    <path d="M323,668.5 C323,660.491871 316.508129,654 308.5,654 C300.491871,654 294,660.491871 294,668.5 C294,676.508129 300.491871,683 308.5,683 C316.508129,683 323,676.508129 323,668.5 Z" id="路径" fill="#0D69B5"></path>
                    <rect id="矩形" fill="#0D69B5" x="291" y="495" width="37" height="94"></rect>
                    <rect id="矩形" fill="#0052A4" x="284" y="562" width="50" height="65"></rect>
                    <rect id="矩形" fill="#0052A4" x="191" y="266" width="160" height="103" rx="9.25"></rect>
                    <path d="M369.004073,462 L232.995927,462 C224.16162,462 217,454.826966 217,445.978581 L217,445.978581 C217.023577,437.146929 224.178296,429.999968 232.995927,430 L369.004073,430 C377.821704,429.999968 384.976423,437.146929 385,445.978581 L385,445.978581 C385,450.227726 383.31472,454.302836 380.314902,457.307435 C377.315083,460.312034 373.246457,462 369.004073,462 L369.004073,462 Z" id="路径" fill="#0052A4"></path>
                    <path d="M380.036288,217 C380.036288,217 397.284319,255.160722 416.127792,268.826386 C430.012457,278.839278 469.855408,296.243661 494.132011,298.005587 C519.745337,299.853459 487.405279,317 487.405279,317 C487.405279,317 424.579327,310.510958 403.32113,296.888268 C382.062932,283.265578 353,243.686721 353,243.686721 L380.036288,217 Z" id="路径" fill="#FFCFC3"></path>
                    <path d="M321.873662,173.548236 C327.403769,160.213164 326.194058,158.578543 338.161555,163.654473 C365.552867,175.26889 391,226.888521 391,226.888521 C391,226.888521 371.471809,253.988827 350.301868,256.999972 C350.301868,257.042988 307.745966,207.445127 321.873662,173.548236 Z" id="路径" fill="#13E5E0"></path>
                    <path d="M266.939633,365.162457 C266.939633,365.162457 259.010642,419.211087 289.218372,435.102676 C319.426103,450.994266 385.012644,465.981455 387.813646,474.810116 C394.622236,496.343435 420.219085,646 420.219085,646 C433.61162,645.670137 446.975963,644.606228 460.251869,642.813069 C460.251869,642.813069 464.561103,462.536124 452.495248,441.390405 C435.258312,411.243759 352.822666,348.754068 340.110426,344.490471 C327.398185,340.226874 266.939633,365.162457 266.939633,365.162457 Z" id="路径" fill="#FFC941"></path>
                    <path d="M338.063499,163.098236 C338.063499,163.098236 346.024421,167.403723 356.082575,185.271496 C373.588042,216.184897 374.615258,321.238792 397,348.880022 C397,348.880022 279.683407,382.807264 255.757842,403 C255.757842,403 206.836694,261.823064 241.291221,190.308917 C248.781335,174.809162 274.889734,151.3012 292.652005,149.191511 C310.414277,147.081822 338.063499,163.098236 338.063499,163.098236 Z" id="路径" fill="#00C8CA"></path>
                    <path d="M313.871021,241 C313.871021,241 318.430167,282.981008 333.483951,293.325404 C349.656016,304.445629 418.301269,320.307037 427.720637,316.298583 C437.140004,312.29013 456.709923,307.376542 468.709939,312.850451 C480.709955,318.324361 478.774469,326.642979 468.709939,327.203301 C458.64541,327.763622 445.010983,338.92695 429.183004,335.26331 C413.355026,331.599669 320.236621,336.987376 306.215097,326.341268 C292.193573,315.69516 274,255.008036 274,255.008036 L313.871021,241 Z" id="路径" fill="#FFCFC3"></path>
                    <path d="M362.375416,69 C362.375416,69 372.536917,81.3677419 377.595673,88.3790323 C381.158797,93.3435484 360,96 360,96 L362.375416,69 Z" id="路径" fill="#FFCFC3"></path>
                    <path d="M370.605984,69.0966277 C373.868245,101.314644 356.513016,129.559393 331.893818,131.84834 C307.274621,134.137288 284.656277,110.254496 281.394016,77.950104 C278.131755,45.6457124 295.486984,17.4873389 320.106182,15.1552037 C344.725379,12.8230685 367.343723,37.0513622 370.605984,69.0966277 Z" id="路径" fill="#FFCFC3"></path>
                    <path d="M344,124.850635 C344,124.850635 332.964912,152.790842 338.077694,163.716456 C338.077694,163.716456 308.807018,179.737811 293,149.811129 C293,149.811129 304.503759,134.307985 303.566416,117.854787 C302.629073,101.40159 344,124.850635 344,124.850635 Z" id="路径" fill="#FFCFC3"></path>
                    <path d="M255.493335,174.487918 C264.457359,160.918669 284.701472,171.084836 293.622607,182.629467 C302.543742,194.174097 320,248.278783 320,248.278783 C320,248.278783 292.764806,274.12497 268.875037,272.961891 C268.875037,272.961891 232.804488,209.035655 255.493335,174.487918 Z" id="路径" fill="#13E5E0"></path>
                    <path d="M500.996605,691.771968 C501.031491,692.448785 500.796338,693.11104 500.345194,693.606521 C499.89405,694.102003 499.265717,694.388094 498.604609,694.39904 C485.491347,694.836886 424.367313,696.544483 420.309463,691.1152 C419.325437,689.348475 418.879186,687.32052 419.028037,685.291856 C419.895115,675.325358 421.887533,665.495665 424.965312,656 C435.431989,656.743233 445.936293,656.743233 456.40297,656 C456.40297,656 461.186962,658.80221 467.551379,662.699034 C473.915796,666.595858 483.013923,671.981357 489.421054,676.140888 C492.366715,677.91063 495.218365,679.83988 497.963896,681.920447 C499.751376,684.046075 500.776233,686.734215 500.868463,689.538956 C500.868463,690.283294 500.953891,691.027631 500.996605,691.771968 Z" id="路径" fill="#FFFFFF"></path>
                    <path d="M489,676.713928 C487.084075,679.930224 484.645626,683.369874 482.59907,682.967837 C479.333289,682.253104 461.741618,673.006254 462.00288,671.04074 C463.259364,668.181486 464.837671,665.482889 466.705604,663 C473.672603,667.154382 482.468439,672.470204 489,676.713928 Z" id="路径" fill="#65B2F1"></path>
                    <path d="M500.996605,691.674923 C501.031491,692.372088 500.796338,693.054252 500.345194,693.564629 C499.89405,694.075006 499.265717,694.369698 498.604609,694.380974 C485.491347,694.831982 424.367313,696.590914 420.309463,690.998411 C419.325437,689.178573 418.879186,687.089652 419.028037,685 C435.216722,686.353025 478.82793,689.510083 500.783034,689.239478 C500.868463,690.141495 500.953891,690.908209 500.996605,691.674923 Z" id="路径" fill="#65B2F1"></path>
                    <path d="M194,348 L270.780228,697.105881 C271.057575,698.214169 272.056272,698.994072 273.205323,698.999687 L277.535849,698.999687 C278.261604,699.011299 278.954434,698.699199 279.424041,698.14911 C279.893649,697.59902 280.090653,696.868786 279.960944,696.158978 L223.05783,348 L194,348 Z" id="路径" fill="#267AAC"></path>
                    <path d="M280,348 L203.176467,697.105881 C202.931342,698.216487 201.938654,699.005791 200.794677,698.999687 L196.464151,698.999687 C195.738396,699.011299 195.045566,698.699199 194.575959,698.14911 C194.106351,697.59902 193.909347,696.868786 194.039056,696.158978 L250.812254,348 L280,348 Z" id="路径" fill="#65B2F1"></path>
                    <path d="M639,348 L715.862289,697.106158 C716.107537,698.216764 717.100726,699.006069 718.24528,698.999965 L722.57799,698.999965 C723.296558,698.998692 723.977595,698.68108 724.437612,698.132705 C724.897628,697.58433 725.089298,696.861605 724.960981,696.159254 L668.072489,348 L639,348 Z" id="路径" fill="#267AAC"></path>
                    <path d="M725,348 L648.173877,697.106193 C647.900481,698.199172 646.924185,698.97498 645.790664,699 L641.457549,699 C640.736527,698.996421 640.053081,698.680058 639.586591,698.133946 C639.1201,697.587834 638.917149,696.866507 639.031005,696.159289 L696.011463,348 L725,348 Z" id="路径" fill="#65B2F1"></path>
                    <rect id="矩形" fill="#65B2F1" x="246" y="343" width="493" height="12"></rect>
                    <rect id="矩形" fill="#267AAC" x="183" y="343" width="66" height="12"></rect>
                    <polygon id="路径" fill="#65B2F1" points="432 335.6 369 338.4 431.442478 338.32"></polygon>
                    <path d="M562.300336,339 L428,337.925362 L449.024653,233.298603 C449.425999,230.812486 451.573911,228.98891 454.087733,229.000051 L577.875743,229.988718 C579.41756,229.996122 580.874921,230.695342 581.847191,231.894159 C582.81946,233.092975 583.2043,234.665204 582.895915,236.178633 L562.300336,339 Z" id="路径" fill="#A2D5F7"></path>
                    <polygon id="路径" fill="#267AAC" points="369.04324 339.24 369 342.84 431.95676 342.68 432 339.16"></polygon>
                    <polygon id="路径" fill="#358FBC" points="563 340.12 432.043135 339.12 432 342.64 562.956865 342.88"></polygon>
                    <path d="M521,285.00019 C521,279.742258 517.832698,275.002055 512.975002,272.989932 C508.117306,270.977808 502.525856,272.090017 498.807936,275.807936 C495.090017,279.525856 493.977808,285.117306 495.989932,289.975002 C498.002055,294.832698 502.742258,298 508.00019,298 C515.179787,298 521,292.179787 521,285.00019 Z" id="路径" fill="#E4E9F4"></path>
                    <path d="M305.409145,64.0100058 C304.121571,67.6147946 310.859875,80.8323535 308.15597,82.9780611 C305.66666,79.2016157 300.902636,75.2964279 297.512025,80.3602978 C292.79092,87.4840471 297.211591,94.4790539 304.808277,95.9381351 C304.627542,104.318408 304.011537,112.683635 302.962755,121 C302.962755,121 263.60591,95.2515087 270.902163,51.1786743 C273.283389,36.759641 282.632832,9.56776232 305.409145,2.60232516 C333.947757,-6.1253344 377.523436,8.57144388 385.925437,24.872299 C383.599546,24.9427465 381.272106,24.7990939 378.972538,24.4431575 C378.972538,24.4431575 399.058692,36.7595192 396.826897,55.5559178 C396.826897,55.5559178 384.337429,51.951129 376.182794,57.7016254 C368.843623,62.8942379 333.263662,60.662702 321.246305,56.1996301 C314.721222,54.0606128 307.683342,57.5314677 305.409145,64.0100058 Z" id="路径" fill="#0D439B"></path>
                    <path d="M882,699.5 C882,720.888889 697.799634,738 470.521539,738 C243.243444,738 59,720.888889 59,699.5 C59,678.111111 243.243444,661 470.521539,661 C697.799634,661 882,678.111111 882,699.5 Z" id="路径" fill="url(#linearGradient-1)" opacity="0.22"></path>
                    <path d="M170.96993,658.546796 C171.485417,648.437384 179.561384,643.944312 188.152837,641.654574 C182.13882,611.84477 166.287588,585.491176 149.491296,577.930718 C142.789962,574.949738 134.241465,571.709542 124.619037,568.426143 C120.924712,576.677843 111.731856,582.553398 103.140402,576.80745 C97.5559575,573.178431 96.8686412,566.309215 98.8446756,560.001634 C52.7515261,546.003987 0,533 0,533 C0,533 10.0949582,555.551764 18.5145829,603.07464 C22.8103097,603.377058 26.6764639,605.105162 27.3637802,609.771045 C27.7158239,613.932677 25.0576125,617.751811 21.0490617,618.843594 C22.0800362,625.712809 23.0680534,633.057254 23.970156,640.790521 C28.5385144,639.19577 33.5748094,639.720162 37.7214173,642.222336 C41.8680253,644.724511 44.6981169,648.946908 45.4487904,653.751306 C46.5656794,664.119933 35.8693195,669.952286 26.8053357,671.421175 C26.8053357,672.198822 26.8053357,672.976469 26.8053357,673.754116 C33.9791996,769.663918 128.098576,745.211239 128.098576,745.211239 C170.798101,736.225095 187.766222,706.328887 190,674.013331 C180.635315,674.661371 170.368528,670.081894 170.96993,658.546796 Z M127.024644,591.409934 C126.063374,591.818019 124.978905,591.818019 124.017635,591.409934 C123.706703,591.263769 123.41754,591.07474 123.15849,590.8483 C122.053339,590.298527 121.428177,589.093456 121.612028,587.86732 C121.707604,587.29771 121.995933,586.778806 122.428216,586.398431 C122.906887,585.734642 123.541476,585.200324 124.275379,584.843137 C125.423861,584.424636 126.708737,584.831772 127.411259,585.836797 L127.411259,585.836797 L127.411259,585.836797 C127.5487,585.960777 127.664817,586.106754 127.754917,586.268823 C128.084449,586.773051 128.331034,587.32739 128.485191,587.910522 C129.020609,589.282298 128.373195,590.833476 127.024644,591.409934 L127.024644,591.409934 Z" id="形状" fill="#12CCC2"></path>
                    <path d="M166.334814,809.784852 C165.918494,809.921957 165.483675,809.994508 165.045442,809.999987 C162.784467,810.005539 160.905798,808.256425 160.747536,805.998471 C157.524107,698.430829 42.2542714,575.201338 41.0938368,573.99658 C39.5296944,573.061051 38.7247604,571.239827 39.0851612,569.451798 C39.445562,567.66377 40.8929678,566.297549 42.6970957,566.042457 C44.5012237,565.787365 46.2699637,566.698843 47.110905,568.317009 C68.8990591,592.264607 88.8141737,617.855195 106.67988,644.862143 C134.143499,686.254171 167.280353,747.782863 168.999515,805.740308 C169.025956,807.50861 167.968908,809.11302 166.334814,809.784852 Z" id="路径" fill="#FFFFFF"></path>
                    <path d="M99.5129624,644.877551 C98.141924,645.232201 96.6960028,644.804652 95.6941153,643.748345 C94.6922277,642.692037 94.2780722,641.158474 94.6002821,639.698025 C99.918969,619.023088 90.1342091,597.269083 90.0530078,597.010106 C89.7635331,595.120061 90.6800422,593.253215 92.3040738,592.424887 C93.9281054,591.59656 95.8713444,592.004809 97.0769226,593.427602 C97.5235299,594.420344 108.242105,618.246159 102.111405,641.899324 C101.766258,643.290397 100.791857,644.407215 99.5129624,644.877551 L99.5129624,644.877551 Z" id="路径" fill="#FFFFFF"></path>
                    <path d="M111.094797,660.501663 L111.094797,660.501663 C89.427158,667.936749 57.9727554,645.332378 56.6479096,644.39231 C54.8877689,643.021637 54.4782798,640.52786 55.7076965,638.666439 C57.0823108,636.881405 59.6068686,636.470059 61.4771861,637.726371 C69.5544716,643.623163 93.7863279,657.766918 108.487842,652.724734 C110.383797,652.618939 112.122184,653.776643 112.755213,655.566652 C113.388242,657.35666 112.764071,659.349615 111.223008,660.458932 L111.094797,660.501663 Z" id="路径" fill="#FFFFFF"></path>
                    <path d="M126.554862,684.732763 C125.163738,685.258299 123.589005,684.99697 122.454552,684.05231 C120.759958,682.574969 120.513183,680.076454 121.887488,678.310988 C134.62462,663.298495 134.450139,633.741322 134.450139,633.443623 C133.930106,631.705291 134.596075,629.836551 136.109601,628.787093 C137.623127,627.737636 139.652251,627.737636 141.165777,628.787093 C142.679302,629.836551 143.345271,631.705291 142.825239,633.443623 C142.825239,634.762001 143.04334,666.318005 128.343295,683.584498 C127.877728,684.132343 127.254983,684.532176 126.554862,684.732763 L126.554862,684.732763 Z" id="路径" fill="#FFFFFF"></path>
                    <path d="M136.28066,712.312783 C123.332709,716.332175 109.386668,715.830138 96.7667246,710.890341 C89.5159561,708.439888 82.5732173,705.171253 76.0751591,701.148771 C74.7883615,699.690084 74.6415311,697.559169 75.716283,695.940484 C76.7910348,694.321799 78.8230916,693.613373 80.6829447,694.20898 C81.1176414,694.51071 112.024581,714.381789 135.845963,703.519507 C137.246784,702.344909 139.240461,702.168774 140.828634,703.079304 C142.416806,703.989834 143.257556,705.791002 142.929868,707.580848 C142.602179,709.370695 141.176599,710.763885 139.367007,711.062759 L136.28066,712.312783 Z" id="路径" fill="#FFFFFF"></path>
                    <path d="M187.721216,745.022878 C187.721216,745.022878 278.808423,766.938229 282.77436,691.84909 C287.343808,604.790467 286.223,570.561186 297,548 C297,548 187.160812,563.801441 161.209795,609.526594 C124.826642,673.464306 152.114007,742.353425 187.721216,745.022878 Z" id="路径" fill="#13E5E0"></path>
                    <path d="M189.694891,804.952419 C190.049938,805.01586 190.413436,805.01586 190.768483,804.952419 C191.640079,804.776619 192.405946,804.261802 192.897314,803.521412 C193.388683,802.781023 193.565228,801.875825 193.388047,801.005288 C176.468241,715.198085 245.822268,596.226397 246.509367,595.068 C246.977146,594.308671 247.117844,593.392677 246.89949,592.528154 C246.681135,591.663631 246.122272,590.923996 245.349887,590.477314 C243.747928,589.524779 241.676794,590.04208 240.711971,591.635712 C227.744513,614.627149 216.532982,638.563878 207.172965,663.241823 C192.829779,701.125703 177.62772,755.99941 186.774721,802.3353 C187.104873,803.731729 188.26964,804.775618 189.694891,804.952419 L189.694891,804.952419 Z" id="路径" fill="#FFFFFF"></path>
                    <path d="M211.228367,661.975311 C211.917651,662.059603 212.616196,661.92683 213.225346,661.595743 C214.013983,661.192917 214.604057,660.489534 214.860385,659.646738 C215.116712,658.803941 215.017324,657.89396 214.584991,657.125269 C206.46961,642.069051 210.718501,623.385845 210.760989,623.048451 C211.171644,621.266597 210.049291,619.491683 208.254144,619.084069 C206.458997,618.676455 204.670842,619.790497 204.260187,621.572351 C204.260187,622.458011 199.416452,642.996885 208.721522,660.246166 C209.21258,661.202963 210.153702,661.85212 211.228367,661.975311 Z" id="路径" fill="#FFFFFF"></path>
                    <path d="M205.989256,676.882679 L205.989256,676.882679 C224.822649,678.872367 246.031814,654.909606 246.895732,653.871508 C247.864821,652.990249 248.236428,651.626683 247.848713,650.374662 C247.460998,649.122642 246.384152,648.20883 245.087157,648.031206 C243.790163,647.853582 242.507824,648.444303 241.798621,649.5461 C236.355943,655.774687 219.466363,671.605681 206.723585,670.264804 C205.83356,670.155668 204.937233,670.410995 204.237843,670.97289 C203.538453,671.534785 203.095254,672.355643 203.008742,673.249336 C202.879918,675.061204 204.18926,676.657334 205.989256,676.882679 Z" id="路径" fill="#FFFFFF"></path>
                    <path d="M198.246459,698.980599 C199.742881,699.142056 201.165335,698.283282 201.741296,696.870672 C202.317257,695.458061 201.90926,693.82876 200.738886,692.867633 C187.847024,682.912233 182.690279,658.678692 182.647306,658.460372 C182.139538,656.73764 180.414419,655.700317 178.683842,656.07712 C176.953264,656.453922 175.79794,658.118411 176.029483,659.901285 C176.28732,660.992886 181.916767,686.841996 196.61349,698.325638 C197.107656,698.655811 197.663579,698.878784 198.246459,698.980599 Z" id="路径" fill="#FFFFFF"></path>
                    <path d="M195.099114,722.852046 C206.100741,723.716235 217.066144,720.77621 226.18759,714.516656 C231.544908,711.192611 236.512465,707.269152 240.99575,702.820927 C241.638323,702.18137 242,701.309073 242,700.398863 C242,699.488653 241.638323,698.616356 240.99575,697.9768 C239.654263,696.6744 237.53108,696.6744 236.189593,697.9768 C235.886502,698.282285 214.973224,719.797191 194.103244,715.433113 C192.263639,715.056507 190.466609,716.244516 190.076464,718.095201 C189.884904,718.98713 190.056699,719.919233 190.553294,720.682317 C191.049888,721.445401 191.829689,721.975554 192.717685,722.153793 L195.099114,722.852046 Z" id="路径" fill="#FFFFFF"></path>
                    <path d="M225.243783,918 L139.756217,918 C132.190249,917.508886 126.143896,911.558782 125.580104,904.04955 L108,785 L257,785 L239.419896,904.04955 C238.820255,911.542306 232.79349,917.473133 225.243783,918 Z" id="路径" fill="#65B2F1"></path>
                    <path d="M257.180812,806 L109.862239,806 C102.199262,806 96,796.395939 96,784.521827 L96,784.521827 C96,772.647716 102.199262,763 109.862239,763 L257.180812,763 C264.800738,763 271,772.647716 271,784.521827 L271,784.521827 C271,796.395939 264.800738,806 257.180812,806 Z" id="路径" fill="#267AAC"></path>
                </g>
            </g>
        </g>
    </g>
</svg>